# xmcd CD database file
#
# Track frame offsets:
#	150
#	22027
#	38085
#
# Disc length: 769 seconds
#
# Revision: 0
# Processed by: cddbd v1.5.1PL0 Copyright (c) Steve Scherf et al.
# Submitted via: CDex 1.51
#
DISCID=1c02ff03
DTITLE=In the Soup - 熱い涙
DYEAR=2001
DGENRE=Rock
TTITLE0=熱い涙
TTITLE1=針の山
TTITLE2=ガラクタ
EXTD=YEAR: 2001
EXTT0=
EXTT1=
EXTT2=
PLAYORDER=
